<svg width="378" height="129" viewBox="0 0 378 129" fill="none" xmlns="http://www.w3.org/2000/svg">
<rect width="378" height="128" rx="24" fill="#2A2345"/>
<g filter="url(#filter0_d_14_3)">
<path d="M344.3 81.1C347.367 83.1667 349.567 84.6667 350.9 85.6C353.3 87.4 354.5 89.1333 354.5 90.8C354.5 92.4 353.5 94.6667 351.5 97.6C349.5 100.533 347.467 102 345.4 102C344.133 102 342.2 101.1 339.6 99.3C339.267 99.1 338.333 98.4667 336.8 97.4C335.267 96.3333 334.067 95.5333 333.2 95C327 99.8 320.033 102.2 312.3 102.2C301.967 102.2 293.233 98.5333 286.1 91.2C279.033 83.8667 275.5 75.1333 275.5 65C275.5 59.4667 276.5 54.3 278.5 49.5C280.5 44.6333 283.167 40.5667 286.5 37.3C289.833 34.0333 293.667 31.4667 298 29.6C302.333 27.7333 306.8 26.8 311.4 26.8C321.267 26.8 329.833 30.3667 337.1 37.5C344.367 44.6333 348 53.6667 348 64.6C348 70.1333 346.767 75.6333 344.3 81.1ZM293.2 64.5C293.2 70.4333 295.1 75.2667 298.9 79C302.767 82.6667 307.067 84.5 311.8 84.5C316.533 84.5 320.8 82.7 324.6 79.1C328.4 75.5 330.3 70.6667 330.3 64.6C330.3 58.5333 328.367 53.6667 324.5 50C320.7 46.3333 316.433 44.5 311.7 44.5C306.967 44.5 302.7 46.3667 298.9 50.1C295.1 53.7667 293.2 58.5667 293.2 64.5Z" fill="url(#paint0_linear_14_3)"/>
</g>
<g filter="url(#filter1_d_14_3)">
<path d="M60.5828 27.768C70.0548 27.768 78.2788 31.192 85.2548 38.04C92.2308 44.888 95.7188 53.4 95.7188 63.576C95.7188 73.688 92.3908 82.328 85.7348 89.496C79.0788 96.6 70.8868 100.152 61.1588 100.152C51.4308 100.152 43.1428 96.632 36.2948 89.592C29.5108 82.552 26.1188 74.168 26.1188 64.44C26.1188 59.128 27.0788 54.168 28.9988 49.56C30.9188 44.888 33.4788 40.984 36.6788 37.848C39.8788 34.712 43.5588 32.248 47.7188 30.456C51.8788 28.664 56.1668 27.768 60.5828 27.768ZM43.1108 63.96C43.1108 69.656 44.9348 74.296 48.5828 77.88C52.2948 81.4 56.4228 83.16 60.9668 83.16C65.5108 83.16 69.6068 81.432 73.2548 77.976C76.9028 74.52 78.7268 69.88 78.7268 64.056C78.7268 58.232 76.8708 53.56 73.1588 50.04C69.5108 46.52 65.4148 44.76 60.8708 44.76C56.3268 44.76 52.2308 46.552 48.5828 50.136C44.9348 53.656 43.1108 58.264 43.1108 63.96ZM101.996 112.728V56.664C101.996 55.192 102.028 54.104 102.092 53.4C102.22 52.696 102.508 51.896 102.956 51C103.852 49.272 105.996 48.408 109.388 48.408C112.78 48.408 115.052 48.856 116.204 49.752C117.42 50.584 118.124 51.832 118.316 53.496C120.748 50.168 124.556 48.504 129.74 48.504C134.988 48.504 139.948 50.968 144.62 55.896C149.292 60.824 151.628 66.552 151.628 73.08C151.628 79.608 149.292 85.336 144.62 90.264C140.012 95.192 135.084 97.656 129.836 97.656C124.588 97.656 120.78 96.184 118.412 93.24V112.632C118.412 114.104 118.348 115.192 118.22 115.896C118.156 116.6 117.868 117.4 117.356 118.296C116.908 119.256 116.108 119.928 114.956 120.312C113.804 120.696 112.236 120.888 110.252 120.888C108.268 120.888 106.668 120.696 105.452 120.312C104.3 119.928 103.468 119.288 102.956 118.392C102.508 117.496 102.22 116.696 102.092 115.992C102.028 115.288 101.996 114.2 101.996 112.728ZM121.004 67.512C119.532 69.24 118.796 71.128 118.796 73.176C118.796 75.224 119.532 77.112 121.004 78.84C122.54 80.504 124.46 81.336 126.764 81.336C129.132 81.336 131.116 80.504 132.716 78.84C134.38 77.176 135.212 75.288 135.212 73.176C135.212 71.064 134.444 69.176 132.908 67.512C131.372 65.784 129.356 64.92 126.86 64.92C124.428 64.92 122.476 65.784 121.004 67.512ZM206.639 67.704C206.639 71.608 205.647 74.52 203.663 76.44C201.743 78.296 199.599 79.224 197.231 79.224H174.479C174.479 81.016 175.535 82.52 177.647 83.736C179.759 84.952 181.871 85.56 183.983 85.56C187.695 85.56 190.607 85.176 192.719 84.408L193.775 84.024C195.311 83.32 196.591 82.968 197.615 82.968C199.663 82.968 201.423 84.408 202.895 87.288C203.727 89.016 204.143 90.488 204.143 91.704C204.143 97.4 197.327 100.248 183.695 100.248C178.959 100.248 174.735 99.448 171.023 97.848C167.375 96.184 164.527 94.008 162.479 91.32C158.447 86.136 156.431 80.344 156.431 73.944C156.431 65.88 159.023 59.448 164.207 54.648C169.455 49.784 175.983 47.352 183.791 47.352C192.687 47.352 199.215 50.488 203.375 56.76C205.551 60.088 206.639 63.736 206.639 67.704ZM186.383 70.488C188.815 70.488 190.031 69.464 190.031 67.416C190.031 65.944 189.455 64.76 188.303 63.864C187.215 62.968 185.615 62.52 183.503 62.52C181.455 62.52 179.407 63.384 177.359 65.112C175.311 66.776 174.287 68.568 174.287 70.488H186.383ZM241.031 48.408C247.431 48.408 252.743 50.872 256.967 55.8C261.255 60.664 263.399 66.616 263.399 73.656V90.552C263.399 92.024 263.335 93.144 263.207 93.912C263.143 94.616 262.887 95.416 262.439 96.312C261.543 98.04 259.047 98.904 254.951 98.904C250.407 98.904 247.783 97.72 247.079 95.352C246.695 94.264 246.503 92.632 246.503 90.456V73.56C246.503 70.936 245.735 68.888 244.199 67.416C242.727 65.944 240.711 65.208 238.151 65.208C235.655 65.208 233.607 65.976 232.007 67.512C230.471 69.048 229.703 71.064 229.703 73.56V90.552C229.703 92.024 229.639 93.144 229.511 93.912C229.447 94.616 229.159 95.416 228.647 96.312C227.815 98.04 225.351 98.904 221.255 98.904C217.223 98.904 214.759 98.04 213.863 96.312C213.415 95.352 213.127 94.52 212.999 93.816C212.935 93.048 212.903 91.928 212.903 90.456V56.472C212.903 55.064 212.935 54.008 212.999 53.304C213.127 52.536 213.447 51.704 213.959 50.808C214.855 49.208 217.319 48.408 221.351 48.408C225.255 48.408 227.655 49.144 228.551 50.616C229.191 51.704 229.511 53.016 229.511 54.552C229.767 54.104 230.343 53.464 231.239 52.632C232.135 51.8 232.999 51.128 233.831 50.616C236.007 49.144 238.407 48.408 241.031 48.408Z" fill="#AE3E8F"/>
</g>
<defs>
<filter id="filter0_d_14_3" x="271.5" y="26.8" width="87" height="83.4" filterUnits="userSpaceOnUse" color-interpolation-filters="sRGB">
<feFlood flood-opacity="0" result="BackgroundImageFix"/>
<feColorMatrix in="SourceAlpha" type="matrix" values="0 0 0 0 0 0 0 0 0 0 0 0 0 0 0 0 0 0 127 0" result="hardAlpha"/>
<feOffset dy="4"/>
<feGaussianBlur stdDeviation="2"/>
<feComposite in2="hardAlpha" operator="out"/>
<feColorMatrix type="matrix" values="0 0 0 0 0 0 0 0 0 0 0 0 0 0 0 0 0 0 0.25 0"/>
<feBlend mode="darken" in2="BackgroundImageFix" result="effect1_dropShadow_14_3"/>
<feBlend mode="normal" in="SourceGraphic" in2="effect1_dropShadow_14_3" result="shape"/>
</filter>
<filter id="filter1_d_14_3" x="22.1187" y="27.768" width="245.28" height="101.12" filterUnits="userSpaceOnUse" color-interpolation-filters="sRGB">
<feFlood flood-opacity="0" result="BackgroundImageFix"/>
<feColorMatrix in="SourceAlpha" type="matrix" values="0 0 0 0 0 0 0 0 0 0 0 0 0 0 0 0 0 0 127 0" result="hardAlpha"/>
<feOffset dy="4"/>
<feGaussianBlur stdDeviation="2"/>
<feComposite in2="hardAlpha" operator="out"/>
<feColorMatrix type="matrix" values="0 0 0 0 0 0 0 0 0 0 0 0 0 0 0 0 0 0 0.25 0"/>
<feBlend mode="darken" in2="BackgroundImageFix" result="effect1_dropShadow_14_3"/>
<feBlend mode="normal" in="SourceGraphic" in2="effect1_dropShadow_14_3" result="shape"/>
</filter>
<linearGradient id="paint0_linear_14_3" x1="287.5" y1="22.5" x2="361" y2="109.5" gradientUnits="userSpaceOnUse">
<stop stop-color="#8F0BDF"/>
<stop offset="1" stop-color="#AB4475"/>
</linearGradient>
</defs>
</svg>
