<svg width="128" height="128" viewBox="0 0 128 128" fill="none" xmlns="http://www.w3.org/2000/svg">
<path d="M108.694 89.15C113.294 92.25 116.594 94.5 118.594 95.9C122.194 98.6 123.994 101.2 123.994 103.7C123.994 106.1 122.494 109.5 119.494 113.9C116.494 118.3 113.444 120.5 110.344 120.5C108.444 120.5 105.544 119.15 101.644 116.45C101.144 116.15 99.7441 115.2 97.4441 113.6C95.1441 112 93.3441 110.8 92.0441 110C82.7441 117.2 72.2941 120.8 60.6941 120.8C45.1941 120.8 32.0941 115.3 21.3941 104.3C10.7941 93.3 5.49414 80.2 5.49414 65C5.49414 56.7 6.99414 48.95 9.99414 41.75C12.9941 34.45 16.9941 28.35 21.9941 23.45C26.9941 18.55 32.7441 14.7 39.2441 11.9C45.7441 9.09999 52.4441 7.69999 59.3441 7.69999C74.1441 7.69999 86.9941 13.05 97.8941 23.75C108.794 34.45 114.244 48 114.244 64.4C114.244 72.7 112.394 80.95 108.694 89.15ZM32.0441 64.25C32.0441 73.15 34.8941 80.4 40.5941 86C46.3941 91.5 52.8441 94.25 59.9441 94.25C67.0441 94.25 73.4441 91.55 79.1441 86.15C84.8441 80.75 87.6941 73.5 87.6941 64.4C87.6941 55.3 84.7941 48 78.9941 42.5C73.2941 37 66.8941 34.25 59.7941 34.25C52.6941 34.25 46.2941 37.05 40.5941 42.65C34.8941 48.15 32.0441 55.35 32.0441 64.25Z" fill="url(#paint0_linear_1_26)"/>
<defs>
<linearGradient id="paint0_linear_1_26" x1="17.6762" y1="22.5" x2="87.4779" y2="123.221" gradientUnits="userSpaceOnUse">
<stop stop-color="#8F0BDF"/>
<stop offset="1" stop-color="#AB4475"/>
</linearGradient>
</defs>
</svg>
